<svg xmlns="http://www.w3.org/2000/svg" viewBox="0 0 600 260" role="img" aria-label="Cross-section of the ball joint stud seating into the steering knuckle: the tapered stud must sit firmly in the matching taper with no rock; below, the backing plate lies flat to the control arm on three new nuts"><rect width="600" height="260" fill="#F9F9F5"></rect><rect x="200" y="40" width="200" height="64" rx="6" fill="#4A4F58" stroke="#1B1F24" stroke-width="2"></rect><text x="360" y="58" text-anchor="middle" fill="#FFFFFF" font-size="10" font-weight="700" font-family="Plus Jakarta Sans, system-ui, sans-serif">knuckle</text><path d="M272 104 L287 56 L313 56 L328 104 Z" fill="#F9F9F5" stroke="#1B1F24" stroke-width="1.5" stroke-linecap="round" stroke-linejoin="round"></path><path d="M284 106 L293 60 L307 60 L316 106 Z" fill="#B8860B" stroke="#1B1F24" stroke-width="1.5" stroke-linecap="round" stroke-linejoin="round"></path><rect x="292" y="46" width="16" height="14" rx="1" fill="#F2B600" stroke="#1B1F24" stroke-width="1.5"></rect><circle cx="300" cy="132" r="24" fill="#B5B9C0" stroke="#1B1F24" stroke-width="2"></circle><circle cx="300" cy="132" r="9" fill="#1B1F24" stroke="#1B1F24" stroke-width="1"></circle><rect x="238" y="160" width="124" height="26" rx="4" fill="#B5B9C0" stroke="#1B1F24" stroke-width="2"></rect><text x="300" y="177" text-anchor="middle" fill="#1B1F24" font-size="9" font-weight="700" font-family="Plus Jakarta Sans, system-ui, sans-serif">backing plate</text><rect x="170" y="186" width="260" height="30" rx="6" fill="#8A8F98" stroke="#1B1F24" stroke-width="2"></rect><text x="300" y="206" text-anchor="middle" fill="#FFFFFF" font-size="9" font-weight="700" font-family="Plus Jakarta Sans, system-ui, sans-serif">control arm</text><rect x="257.5" y="176" width="5" height="34" rx="1" fill="#B8860B" stroke="#1B1F24" stroke-width="1.5"></rect><rect x="252.0" y="210" width="16.0" height="8" rx="1" fill="#F2B600" stroke="#1B1F24" stroke-width="1.5"></rect><rect x="297.5" y="176" width="5" height="34" rx="1" fill="#B8860B" stroke="#1B1F24" stroke-width="1.5"></rect><rect x="292.0" y="210" width="16.0" height="8" rx="1" fill="#F2B600" stroke="#1B1F24" stroke-width="1.5"></rect><rect x="337.5" y="176" width="5" height="34" rx="1" fill="#B8860B" stroke="#1B1F24" stroke-width="1.5"></rect><rect x="332.0" y="210" width="16.0" height="8" rx="1" fill="#F2B600" stroke="#1B1F24" stroke-width="1.5"></rect><text x="300" y="244" text-anchor="middle" fill="#0E494D" font-size="9" font-weight="400" font-family="Plus Jakarta Sans, system-ui, sans-serif">3 new nuts · blue threadlocker · torque per the joint's sheet</text><text x="60" y="30" text-anchor="start" fill="#0E494D" font-size="9" font-weight="400" font-family="Plus Jakarta Sans, system-ui, sans-serif">stud seats firmly, no rock</text><path d="M150 34 L290 58" fill="none" stroke="#0E494D" stroke-width="1.5" stroke-linecap="round" stroke-dasharray="3 3"></path><text x="408" y="30" text-anchor="start" fill="#0E494D" font-size="9" font-weight="400" font-family="Plus Jakarta Sans, system-ui, sans-serif">rock in the taper = worn knuckle</text><path d="M520 34 L310 58" fill="none" stroke="#0E494D" stroke-width="1.5" stroke-linecap="round" stroke-dasharray="3 3"></path></svg>